<svg viewBox="0 0 500 500" version="1.1" xmlns="http://www.w3.org/2000/svg" xmlns:xlink="http://www.w3.org/1999/xlink">
 <title>5.25" Disk</title>
 <defs>
  <linearGradient id="linearGradient5410" x1="-.5" x2="500.5" y1="802.36" y2="802.36" gradientUnits="userSpaceOnUse">
   <stop offset="0"/>
   <stop stop-color="#0000b2" stop-opacity=".62264" offset="1"/>
  </linearGradient>
 </defs>
 <g transform="translate(0 -552.36)">
  <path d="m7.75 552.36c-4.2983 0-7.75 3.4391-7.75 7.7227v484.55c0 4.2836 3.4517 7.7227 7.75 7.7227h181.94c-2.4e-4 -0.021 0-0.0415 0-0.0625 0-3.37 3.105-6.1035 6.9375-6.1035s6.9375 2.7335 6.9375 6.1035c0 0.021 2.4e-4 0.0415 0 0.0625h90.062c-2.4e-4 -0.021 0-0.0415 0-0.0625 0-3.37 3.105-6.1035 6.9375-6.1035s6.9375 2.7335 6.9375 6.1035c0 0.021 2.4e-4 0.0415 0 0.0625h184.75c4.2983 0 7.75-3.4391 7.75-7.7227v-353.6h-13.375c-0.95517 0-1.75-0.76099-1.75-1.7129v-18.873c0-0.9519 0.79483-1.7129 1.75-1.7129h13.375v-108.66c0-4.2836-3.4517-7.7227-7.75-7.7227h-484.5zm242.21 199.02a53.689 53.505 0 0 1 53.689 53.504 53.689 53.505 0 0 1-53.689 53.506 53.689 53.505 0 0 1-53.689-53.506 53.689 53.505 0 0 1 53.689-53.504z" stroke="url(#linearGradient5410)" fill="currentColor"/>
    <g fill="currentColor" stroke="currentColor">
     <rect x="224.44" y="906.75" width="49.877" height="124.26" ry="25.43" stroke-width=".86059px"/>
     <path transform="matrix(.86207 0 0 .85912 -75.377 340)" d="m500.71 564.15c0 7.1008-5.7563 12.857-12.857 12.857-7.1008 0-12.857-5.7563-12.857-12.857 0-7.1008 5.7563-12.857 12.857-12.857 7.1008 0 12.857 5.7563 12.857 12.857z"  stroke-width="1px"/>
     <path transform="matrix(.89421 0 0 .89115 -92.393 324.42)" d="m382.86 453.43a85.714 85.714 0 0 0-85.714 85.713 85.714 85.714 0 0 0 85.714 85.715 85.714 85.714 0 0 0 85.714-85.715 85.714 85.714 0 0 0-85.714-85.713zm0 25.674a60.041 60.041 0 0 1 60.041 60.039 60.041 60.041 0 0 1-60.041 60.042 60.041 60.041 0 0 1-60.041-60.042 60.041 60.041 0 0 1 60.041-60.039z" stroke-width="1px"/>
    </g>
  <path transform="translate(0 552.36)" d="m3.8241 498.09c-0.91455-0.69448-2.1379-2.5423-2.7185-4.1064-1.4822-3.9927-1.4775-484.05 0.0047959-488.31 0.58324-1.6731 2.1956-3.5592 3.5831-4.1913 1.8632-0.84892 66.116-1.1494 245.79-1.1494h243.26l5.3232 4.1872v55.485 55.485h-6.4423c-4.2843 0-6.8348 0.4729-7.614 1.4118-0.76177 0.91787-1.0701 4.8936-0.88131 11.364l0.29037 9.9524 14.647 0.59359v178.25c0 176.9-0.0153 178.26-2.0203 180.27-1.9911 1.9911-3.3672 2.0203-95.054 2.0203h-93.034l-2.8309-3.0304c-1.7923-1.9186-3.8306-3.0305-5.5558-3.0305s-3.7636 1.1118-5.5558 3.0305l-2.8309 3.0304h-43.459-43.459l-3.0305-3.0304c-1.8571-1.8571-4.077-3.0305-5.7333-3.0305-1.7007 0-3.7525 1.1237-5.5338 3.0305l-2.8309 3.0304h-91.326c-71.5 0-91.686-0.27411-92.988-1.2627zm253.88-19.952c5.2089-1.447 11.963-7.6823 14.709-13.579l2.3781-5.1069v-42.931-42.931l-2.3781-5.1069c-2.746-5.897-9.4998-12.132-14.709-13.579-5.6489-1.5693-14.277-1.1657-18.776 0.8783-5.3196 2.4165-10.398 7.5844-13.021 13.251-2.0345 4.3952-2.1094 6.0812-2.1094 47.489 0 41.407 0.0749 43.093 2.1094 47.488 2.6229 5.6664 7.701 10.834 13.021 13.251 4.4995 2.044 13.127 2.4476 18.776 0.8783zm14.581-151.58c27.69-8.5912 47.663-30.477 53.706-58.852 1.8754-8.8054 1.2827-26.444-1.194-35.535-7.0828-25.999-27.866-46.594-54.743-54.247-10.255-2.9201-28.8-3.1141-38.671-0.40436-29.643 8.1376-49.314 27.974-56.698 57.176-1.836 7.2603-2.072 10.376-1.6044 21.177 0.59616 13.769 2.1881 20.276 7.6445 31.245 10.321 20.748 29.625 35.672 53.174 41.111 8.9138 2.0585 29.216 1.1756 38.386-1.6694zm79.4-44.672c6.177-4.1532 7.0498-12.607 1.8394-17.818-6.7398-6.7398-18.267-3.0544-19.79 6.3268-1.6923 10.428 9.1795 17.388 17.95 11.491zm-94.507-144.62 2.4795-2.4795v-54.404c0-52.814-0.0584-54.466-1.999-56.549-1.1426-1.2264-3.8474-2.4101-6.3134-2.7628-2.3729-0.33941-53.736-0.48234-114.14-0.31763l-109.83 0.29948-4.6014 4.6006-0.28865 52.753c-0.15876 29.014-0.03962 53.763 0.26477 54.998 0.30438 1.2347 1.5428 3.1666 2.752 4.2932 2.1815 2.0324 3.0784 2.0483 115.7 2.0483h113.5l2.4795-2.4795z" fill="#000" opacity="0" stroke-width=".6"/>
 </g>
</svg>
